<?xml version="1.0" standalone="no"?>
<!DOCTYPE svg PUBLIC "-//W3C//DTD SVG 20010904//EN"
 "http://www.w3.org/TR/2001/REC-SVG-20010904/DTD/svg10.dtd">
<svg version="1.0" xmlns="http://www.w3.org/2000/svg"
 width="180.000000pt" height="180.000000pt" viewBox="0 0 180.000000 180.000000"
 preserveAspectRatio="xMidYMid meet">
<metadata>
Created by potrace 1.14, written by Peter Selinger 2001-2017
</metadata>
<g transform="translate(0.000000,180.000000) scale(0.100000,-0.100000)"
fill="#000000" stroke="none">
<path d="M743 1786 c-350 -67 -621 -318 -714 -661 -32 -115 -32 -335 0 -450
86 -317 329 -560 646 -646 114 -31 335 -32 450 -1 307 83 547 318 641 627 25
81 27 105 27 245 0 139 -2 164 -26 243 -94 309 -319 533 -622 622 -112 33
-292 42 -402 21z m-171 -557 c117 -25 237 -111 371 -266 188 -219 292 -281
402 -239 69 27 125 106 125 176 0 70 -56 149 -125 176 -65 24 -121 13 -200
-41 l-64 -44 -45 52 -46 52 37 33 c49 44 135 87 198 100 137 28 290 -51 355
-183 21 -42 25 -64 25 -145 0 -80 -4 -103 -24 -143 -66 -134 -219 -213 -356
-185 -105 22 -223 101 -327 220 -233 266 -328 327 -443 284 -69 -27 -125 -106
-125 -176 0 -70 56 -149 125 -176 63 -24 120 -13 195 38 l62 41 43 -49 c24
-27 44 -52 45 -56 0 -11 -73 -64 -125 -90 -140 -71 -287 -48 -391 59 -69 71
-89 122 -89 233 0 80 4 103 24 143 47 95 146 169 248 187 27 4 49 8 50 9 1 0
26 -4 55 -10z"/>
</g>
</svg>
